<?xml version="1.0" encoding="UTF-8" standalone="no"?>
<!-- This is a Stata 16.0 generated SVG file (http://www.stata.com) -->

<svg version="1.1" width="5.50in" height="4.00in" viewBox="0 0 3960 2880" xmlns="http://www.w3.org/2000/svg" xmlns:xlink="http://www.w3.org/1999/xlink">
	<desc>Stata Graph - Graph</desc>
	<rect x="0" y="0" width="3960" height="2880" style="fill:#EAF2F3;stroke:none"/>
	<rect x="0.00" y="0.00" width="3959.88" height="2880.00" style="fill:#EAF2F3"/>
	<rect x="2.88" y="2.88" width="3954.12" height="2874.24" style="fill:none;stroke:#EAF2F3;stroke-width:5.76"/>
	<rect x="390.80" y="100.86" width="3468.22" height="1852.84" style="fill:#FFFFFF"/>
	<rect x="393.68" y="103.74" width="3462.46" height="1847.08" style="fill:none;stroke:#FFFFFF;stroke-width:5.76"/>
	<line x1="390.80" y1="1953.70" x2="3859.02" y2="1953.70" style="stroke:#EAF2F3;stroke-width:8.64"/>
	<line x1="390.80" y1="1506.33" x2="3859.02" y2="1506.33" style="stroke:#EAF2F3;stroke-width:8.64"/>
	<line x1="390.80" y1="1058.96" x2="3859.02" y2="1058.96" style="stroke:#EAF2F3;stroke-width:8.64"/>
	<line x1="390.80" y1="611.59" x2="3859.02" y2="611.59" style="stroke:#EAF2F3;stroke-width:8.64"/>
	<line x1="390.80" y1="164.22" x2="3859.02" y2="164.22" style="stroke:#EAF2F3;stroke-width:8.64"/>
	<rect x="723.32" y="1434.55" width="538.44" height="519.15" style="fill:#FF7F00;fill-opacity:0.40"/>
	<rect x="727.64" y="1438.87" width="529.80" height="510.51" style="fill:none;stroke:#D7D29E;stroke-width:8.64"/>
	<rect x="1261.76" y="1564.37" width="538.31" height="389.33" style="fill:#FF7F00;fill-opacity:0.40"/>
	<rect x="1266.07" y="1568.69" width="529.67" height="380.69" style="fill:none;stroke:#D7D29E;stroke-width:8.64"/>
	<rect x="1800.07" y="785.71" width="538.44" height="1167.99" style="fill:#FF7F00;fill-opacity:0.40"/>
	<rect x="1804.39" y="790.03" width="529.80" height="1159.35" style="fill:none;stroke:#D7D29E;stroke-width:8.64"/>
	<rect x="2338.50" y="266.57" width="538.44" height="1687.14" style="fill:#FF7F00;fill-opacity:0.40"/>
	<rect x="2342.82" y="270.89" width="529.80" height="1678.50" style="fill:none;stroke:#D7D29E;stroke-width:8.64"/>
	<rect x="2876.94" y="1823.88" width="538.31" height="129.82" style="fill:#FF7F00;fill-opacity:0.40"/>
	<rect x="2881.26" y="1828.20" width="529.67" height="121.18" style="fill:none;stroke:#D7D29E;stroke-width:8.64"/>
	<path d=" M723.32 1876.73 L732.23 1874.00 L741.26 1871.28 L750.30 1868.44 L759.33 1865.59 L768.24 1862.62 L777.27 1859.53 L786.31 1856.43 L795.34 1853.21 L804.25 1850.00 L813.28 1846.53 L822.32 1843.07 L831.35 1839.60 L840.26 1835.89 L849.30 1832.18 L858.33 1828.34 L867.36 1824.38 L876.27 1820.42 L885.31 1816.34 L894.34 1812.00 L903.38 1807.80 L912.28 1803.34 L921.32 1798.76 L930.35 1794.18 L939.39 1789.48 L948.30 1784.65 L957.33 1779.70 L966.36 1774.63 L975.40 1769.43 L984.31 1764.24 L993.34 1758.79 L1002.38 1753.34 L1011.41 1747.78 L1020.44 1741.96 L1029.35 1736.14 L1038.39 1730.20 L1047.42 1724.14 L1056.45 1717.95 L1065.36 1711.76 L1074.40 1705.33 L1083.43 1698.77 L1092.46 1692.09 L1101.38 1685.28 L1110.41 1678.47 L1119.44 1671.42 L1128.48 1664.37 L1137.39 1657.06 L1146.42 1649.64 L1155.45 1642.21 L1164.49 1634.66 L1173.40 1626.87 L1182.43 1619.07 L1191.46 1611.03 L1200.50 1602.98 L1209.41 1594.82 L1218.44 1586.52 L1227.48 1577.99 L1236.51 1569.45 L1245.42 1560.78 L1254.45 1552.00 L1263.49 1543.09 L1272.52 1534.18 L1281.43 1525.02 L1290.46 1515.86 L1299.50 1506.46 L1308.53 1497.05 L1317.44 1487.52 L1326.48 1477.87 L1335.51 1468.09 L1344.54 1458.32 L1353.45 1448.29 L1362.49 1438.27 L1371.52 1428.12 L1380.56 1417.97 L1389.46 1407.70 L1398.50 1397.30 L1407.53 1386.79 L1416.57 1376.27 L1425.48 1365.62 L1434.51 1354.86 L1443.54 1344.09 L1452.58 1333.32 L1461.49 1322.31 L1470.52 1311.42 L1479.56 1300.41 L1488.59 1289.27 L1497.50 1278.13 L1506.53 1266.99 L1515.57 1255.73 L1524.60 1244.47 L1533.51 1233.21 L1542.54 1221.82 L1551.58 1210.44 L1560.61 1199.05 L1569.52 1187.67 L1578.56 1176.28 L1587.59 1164.90 L1596.62 1153.39 L1605.53 1142.00 L1614.57 1130.62 L1623.60 1119.11 L1632.63 1107.72 L1641.67 1096.34 L1650.58 1084.95 L1659.61 1073.69 L1668.64 1062.43 L1677.68 1051.04 L1686.59 1039.90 L1695.62 1028.77 L1704.66 1017.63 L1713.69 1006.49 L1722.60 995.48 L1731.63 984.59 L1740.67 973.70 L1749.70 962.93 L1758.61 952.29 L1767.64 941.64 L1776.68 931.12 L1785.71 920.73 L1794.62 910.46 L1803.66 900.31 L1812.69 890.16 L1821.72 880.26 L1830.63 870.48 L1839.67 860.71 L1848.70 851.18 L1857.73 841.77 L1866.64 832.49 L1875.68 823.46 L1884.71 814.42 L1893.75 805.64 L1902.66 796.97 L1911.69 788.56 L1920.72 780.27 L1929.76 772.22 L1938.67 764.30 L1947.70 756.51 L1956.73 749.08 L1965.77 741.66 L1974.68 734.60 L1983.71 727.67 L1992.75 720.99 L2001.78 714.43 L2010.69 708.24 L2019.72 702.18 L2028.76 696.36 L2037.79 690.67 L2046.70 685.35 L2055.74 680.15 L2064.77 675.32 L2073.80 670.62 L2082.71 666.29 L2091.75 662.08 L2100.78 658.25 L2109.81 654.53 L2118.72 651.19 L2127.76 647.98 L2136.79 645.13 L2145.82 642.53 L2154.74 640.06 L2163.77 637.95 L2172.80 636.09 L2181.84 634.61 L2190.75 633.25 L2199.78 632.26 L2208.81 631.39 L2217.85 630.90 L2226.76 630.65 L2235.79 630.77 L2244.82 631.02 L2253.86 631.64 L2262.89 632.38 L2271.80 633.50 L2280.84 634.86 L2289.87 636.59 L2298.90 638.45 L2307.81 640.55 L2316.85 643.03 L2325.88 645.75 L2334.91 648.59 L2343.82 651.81 L2352.86 655.28 L2361.89 658.99 L2370.93 662.95 L2379.84 667.16 L2388.87 671.61 L2397.90 676.31 L2406.94 681.27 L2415.85 686.46 L2424.88 691.91 L2433.91 697.60 L2442.95 703.42 L2451.86 709.48 L2460.89 715.79 L2469.93 722.35 L2478.96 729.16 L2487.87 736.09 L2496.90 743.27 L2505.94 750.69 L2514.97 758.24 L2523.88 766.04 L2532.91 773.96 L2541.95 782.12 L2550.98 790.42 L2559.89 798.83 L2568.93 807.49 L2577.96 816.40 L2586.99 825.31 L2595.90 834.47 L2604.94 843.75 L2613.97 853.28 L2623.01 862.81 L2631.91 872.59 L2640.95 882.37 L2649.98 892.39 L2659.02 902.54 L2667.93 912.68 L2676.96 922.96 L2685.99 933.48 L2695.03 943.99 L2703.94 954.64 L2712.97 965.28 L2722.01 976.05 L2731.04 986.94 L2739.95 997.95 L2748.98 1008.97 L2758.02 1019.98 L2767.05 1031.12 L2775.96 1042.26 L2784.99 1053.52 L2794.03 1064.78 L2803.06 1076.16 L2811.97 1087.43 L2821.01 1098.81 L2830.04 1110.20 L2839.07 1121.58 L2847.98 1133.09 L2857.02 1144.48 L2866.05 1155.86 L2875.08 1167.37 L2884.12 1178.76 L2893.03 1190.14 L2902.06 1201.53 L2911.09 1212.91 L2920.13 1224.30 L2929.04 1235.68 L2938.07 1246.94 L2947.11 1258.21 L2956.14 1269.34 L2965.05 1280.61 L2974.08 1291.74 L2983.12 1302.76 L2992.15 1313.77 L3001.06 1324.79 L3010.09 1335.68 L3019.13 1346.44 L3028.16 1357.21 L3037.07 1367.85 L3046.11 1378.49 L3055.14 1389.01 L3064.17 1399.53 L3073.08 1409.93 L3082.12 1420.20 L3091.15 1430.35 L3100.18 1440.50 L3109.09 1450.52 L3118.13 1460.42 L3127.16 1470.20 L3136.20 1479.97 L3145.11 1489.63 L3154.14 1499.15 L3163.17 1508.56 L3172.21 1517.84 L3181.12 1527.00 L3190.15 1536.16 L3199.18 1545.07 L3208.22 1553.98 L3217.13 1562.76 L3226.16 1571.30 L3235.20 1579.84 L3244.23 1588.26 L3253.14 1596.55 L3262.17 1604.72 L3271.21 1612.76 L3280.24 1620.68 L3289.15 1628.60 L3298.18 1636.27 L3307.22 1643.82 L3316.25 1651.25 L3325.16 1658.67 L3334.20 1665.85 L3343.23 1673.03 L3352.26 1679.96 L3361.17 1686.77 L3370.21 1693.57 L3379.24 1700.13 L3388.28 1706.69 L3397.18 1713.12 L3406.22 1719.31 L3415.25 1725.50" stroke-linejoin="round" style="fill:none;stroke:#2D6D66;stroke-width:8.64"/>
	<rect x="618.13" y="1733.79" width="635.46" height="219.91" style="fill:#0080FF;fill-opacity:0.60"/>
	<rect x="622.45" y="1738.11" width="626.82" height="211.27" style="fill:none;stroke:#D7D29E;stroke-width:8.64"/>
	<rect x="1253.59" y="1294.09" width="635.58" height="659.61" style="fill:#0080FF;fill-opacity:0.60"/>
	<rect x="1257.91" y="1298.41" width="626.94" height="650.97" style="fill:none;stroke:#D7D29E;stroke-width:8.64"/>
	<rect x="1889.17" y="304.56" width="635.46" height="1649.14" style="fill:#0080FF;fill-opacity:0.60"/>
	<rect x="1893.49" y="308.88" width="626.82" height="1640.50" style="fill:none;stroke:#D7D29E;stroke-width:8.64"/>
	<rect x="2524.62" y="1513.88" width="635.58" height="439.82" style="fill:#0080FF;fill-opacity:0.60"/>
	<rect x="2528.94" y="1518.20" width="626.94" height="431.18" style="fill:none;stroke:#D7D29E;stroke-width:8.64"/>
	<rect x="3160.20" y="1623.90" width="635.46" height="329.80" style="fill:#0080FF;fill-opacity:0.60"/>
	<rect x="3164.52" y="1628.22" width="626.82" height="321.16" style="fill:none;stroke:#D7D29E;stroke-width:8.64"/>
	<line x1="390.80" y1="1953.70" x2="390.80" y2="100.86" style="stroke:#000000;stroke-width:5.76"/>
	<line x1="390.80" y1="1953.70" x2="350.83" y2="1953.70" style="stroke:#000000;stroke-width:5.76"/>
	<text x="300.72" y="1953.70" style="font-family:'Helvetica';font-size:99.99px;fill:#000000" transform="rotate(-90 300.72,1953.70)" text-anchor="middle">0</text>
	<line x1="390.80" y1="1506.33" x2="350.83" y2="1506.33" style="stroke:#000000;stroke-width:5.76"/>
	<text x="300.72" y="1506.33" style="font-family:'Helvetica';font-size:99.99px;fill:#000000" transform="rotate(-90 300.72,1506.33)" text-anchor="middle">.01</text>
	<line x1="390.80" y1="1058.96" x2="350.83" y2="1058.96" style="stroke:#000000;stroke-width:5.76"/>
	<text x="300.72" y="1058.96" style="font-family:'Helvetica';font-size:99.99px;fill:#000000" transform="rotate(-90 300.72,1058.96)" text-anchor="middle">.02</text>
	<line x1="390.80" y1="611.59" x2="350.83" y2="611.59" style="stroke:#000000;stroke-width:5.76"/>
	<text x="300.72" y="611.59" style="font-family:'Helvetica';font-size:99.99px;fill:#000000" transform="rotate(-90 300.72,611.59)" text-anchor="middle">.03</text>
	<line x1="390.80" y1="164.22" x2="350.83" y2="164.22" style="stroke:#000000;stroke-width:5.76"/>
	<text x="300.72" y="164.22" style="font-family:'Helvetica';font-size:99.99px;fill:#000000" transform="rotate(-90 300.72,164.22)" text-anchor="middle">.04</text>
	<text x="190.71" y="1027.28" style="font-family:'Helvetica';font-size:99.99px;fill:#000000" transform="rotate(-90 190.71,1027.28)" text-anchor="middle">Density</text>
	<line x1="390.80" y1="1953.70" x2="3859.02" y2="1953.70" style="stroke:#000000;stroke-width:5.76"/>
	<line x1="541.53" y1="1953.70" x2="541.53" y2="1993.67" style="stroke:#000000;stroke-width:5.76"/>
	<text x="541.53" y="2083.66" style="font-family:'Helvetica';font-size:99.99px;fill:#000000" text-anchor="middle">20</text>
	<line x1="1478.57" y1="1953.70" x2="1478.57" y2="1993.67" style="stroke:#000000;stroke-width:5.76"/>
	<text x="1478.57" y="2083.66" style="font-family:'Helvetica';font-size:99.99px;fill:#000000" text-anchor="middle">40</text>
	<line x1="2415.60" y1="1953.70" x2="2415.60" y2="1993.67" style="stroke:#000000;stroke-width:5.76"/>
	<text x="2415.60" y="2083.66" style="font-family:'Helvetica';font-size:99.99px;fill:#000000" text-anchor="middle">60</text>
	<line x1="3352.76" y1="1953.70" x2="3352.76" y2="1993.67" style="stroke:#000000;stroke-width:5.76"/>
	<text x="3352.76" y="2083.66" style="font-family:'Helvetica';font-size:99.99px;fill:#000000" text-anchor="middle">80</text>
	<text x="2124.91" y="2193.67" style="font-family:'Helvetica';font-size:99.99px;fill:#000000" text-anchor="middle">age</text>
	<rect x="1243.32" y="2278.31" width="1763.19" height="466.30" style="fill:#FFFFFF"/>
	<rect x="1246.20" y="2281.19" width="1757.43" height="460.54" style="fill:none;stroke:#000000;stroke-width:5.76"/>
	<rect x="1286.51" y="2321.50" width="374.34" height="99.99" style="fill:#FF7F00;fill-opacity:0.40"/>
	<rect x="1290.82" y="2325.82" width="365.70" height="91.35" style="fill:none;stroke:#D7D29E;stroke-width:8.64"/>
	<line x1="1286.51" y1="2511.46" x2="1660.85" y2="2511.46" style="stroke:#2D6D66;stroke-width:8.64"/>
	<rect x="1286.51" y="2601.43" width="374.34" height="99.99" style="fill:#0080FF;fill-opacity:0.60"/>
	<rect x="1290.82" y="2605.75" width="365.70" height="91.35" style="fill:none;stroke:#D7D29E;stroke-width:8.64"/>
	<text x="1720.87" y="2406.52" style="font-family:'Helvetica';font-size:99.99px;fill:#000000">Sampled from Normal</text>
	<text x="1720.87" y="2546.49" style="font-family:'Helvetica';font-size:99.99px;fill:#000000">Theoretical Normal</text>
	<text x="1720.87" y="2686.46" style="font-family:'Helvetica';font-size:99.99px;fill:#000000">Sampled from t-distribution</text>
</svg>
